<svg width="74" height="75" viewBox="0 0 74 75" fill="none" xmlns="http://www.w3.org/2000/svg">
<path d="M61.8543 32.8005C61.8543 46.7177 45.818 67.164 36.6544 67.164C27.4908 67.164 11.4545 46.7177 11.4545 32.8005C11.4545 26.1171 14.1095 19.7074 18.8354 14.9815C23.5613 10.2556 29.971 7.60059 36.6544 7.60059C43.3379 7.60059 49.7476 10.2556 54.4735 14.9815C59.1994 19.7074 61.8543 26.1171 61.8543 32.8005V32.8005Z" stroke="#00875F" stroke-width="2" stroke-linecap="round" stroke-linejoin="round"/>
<path d="M29.7817 43.1096C27.3514 43.1096 25.0206 42.1441 23.3021 40.4256C21.5836 38.7071 20.6181 36.3763 20.6181 33.946V32.8005C20.6181 32.1929 20.8595 31.6102 21.2891 31.1806C21.7187 30.751 22.3014 30.5096 22.909 30.5096C25.3394 30.5096 27.6701 31.4751 29.3887 33.1936C31.1072 34.9121 32.0726 37.2429 32.0726 39.6732V40.8187C32.0726 41.4262 31.8313 42.0089 31.4016 42.4386C30.972 42.8682 30.3893 43.1096 29.7817 43.1096V43.1096Z" stroke="#00875F" stroke-width="2" stroke-linecap="round" stroke-linejoin="round"/>
<path d="M50.3998 30.5096C51.0074 30.5096 51.5901 30.751 52.0197 31.1806C52.4494 31.6102 52.6907 32.1929 52.6907 32.8005V33.9459C52.6907 36.3763 51.7253 38.7071 50.0068 40.4256C48.2883 42.1441 45.9575 43.1096 43.5271 43.1096C42.9195 43.1096 42.3368 42.8682 41.9072 42.4386C41.4776 42.0089 41.2362 41.4262 41.2362 40.8187V39.6732C41.2362 37.2429 42.2017 34.9121 43.9202 33.1936C45.6387 31.475 47.9695 30.5096 50.3998 30.5096Z" stroke="#00875F" stroke-width="2" stroke-linecap="round" stroke-linejoin="round"/>
<path d="M32.0726 53.4186H41.2362" stroke="#00875F" stroke-width="2" stroke-linecap="round" stroke-linejoin="round"/>
</svg>
